<svg width="24" height="24" xmlns="http://www.w3.org/2000/svg">
 <!-- Created with Method Draw - http://github.com/duopixel/Method-Draw/ -->
 <g>
  <title>background</title>
  <rect fill="#fff" id="canvas_background" height="26" width="26" y="-1" x="-1"/>
  <g display="none" overflow="visible" y="0" x="0" height="100%" width="100%" id="canvasGrid">
   <rect fill="url(#gridpattern)" stroke-width="0" y="1" x="1" height="434" width="1021" id="svg_1"/>
  </g>
 </g>
 <g>
  <title>Layer 1</title>
  <defs>
   <clipPath id="svg_31">
    <path id="svg_33" d="m16.8242,0.25505l6.75,0l0,7.683l-6.75,0l0,-7.683z"/>
   </clipPath>
   <clipPath id="svg_29">
    <path id="svg_34" d="m3.4052,8.27905l27.06,0l0,25.236l-27.06,0l0,-25.236z"/>
   </clipPath>
   <clipPath id="svg_27">
    <path id="svg_35" d="m0.2943,33.59961l141.212,0l0,-33.429l-141.212,0l0,33.429z"/>
   </clipPath>
   <clipPath id="svg_25">
    <path id="svg_36" d="m0.2943,33.59961l141.212,0l0,-33.429l-141.212,0l0,33.429z"/>
   </clipPath>
   <clipPath id="svg_23">
    <path id="svg_37" d="m0.2943,33.59961l141.212,0l0,-33.429l-141.212,0l0,33.429z"/>
   </clipPath>
   <clipPath id="svg_21">
    <path id="svg_38" d="m0.2943,33.59961l141.212,0l0,-33.429l-141.212,0l0,33.429z"/>
   </clipPath>
   <clipPath id="svg_19">
    <path id="svg_39" d="m0.2943,33.59961l141.212,0l0,-33.429l-141.212,0l0,33.429z"/>
   </clipPath>
  </defs>
  <g id="svg_2">
   <g stroke="null" transform="matrix(0.7035094735471,0,0,0.7035623373947186,0.0859151832049605,0.12026865477538884) " id="svg_30">
    <path stroke="null" id="svg_40" clip-path="url(#svg_31)" fill-rule="evenodd" d="m21.8212,5.58505c1.147,-1.435 1.926,-3.361 1.72,-5.33c-1.679,0.083 -3.728,1.108 -4.915,2.544c-1.065,1.23 -2.008,3.237 -1.762,5.123c1.885,0.164 3.768,-0.942 4.957,-2.337" fill="#fa233b"/>
   </g>
   <g stroke="null" transform="matrix(0.7035094735471,0,0,0.7035623373947186,0.0859151832049605,0.12026865477538884) " id="svg_28">
    <path stroke="null" id="svg_41" clip-path="url(#svg_29)" fill-rule="evenodd" d="m23.5202,8.29005c-2.738,-0.163 -5.066,1.554 -6.373,1.554c-1.308,0 -3.31,-1.471 -5.475,-1.432c-2.819,0.042 -5.434,1.635 -6.864,4.169c-2.942,5.071 -0.776,12.592 2.084,16.721c1.389,2.043 3.064,4.292 5.269,4.211c2.085,-0.081 2.902,-1.349 5.435,-1.349c2.532,0 3.268,1.349 5.474,1.309c2.288,-0.041 3.719,-2.045 5.108,-4.089c1.594,-2.329 2.246,-4.578 2.287,-4.701c-0.041,-0.041 -4.412,-1.718 -4.453,-6.746c-0.041,-4.21 3.432,-6.213 3.596,-6.337c-1.961,-2.9 -5.026,-3.227 -6.088,-3.31" fill="#fa233b"/>
   </g>
  </g>
 </g>
</svg>
