<svg width="100" height="24" xmlns="http://www.w3.org/2000/svg">
 <!-- Created with Method Draw - http://github.com/duopixel/Method-Draw/ -->
 <g>
  <title>background</title>
  <rect x="-1" y="-1" width="21.80198" height="6.75248" id="canvas_background" fill="#fff"/>
  <g id="canvasGrid" width="100%" height="100%" x="0" y="0" overflow="visible" display="none">
   <rect id="svg_1" width="1021" height="434" x="1" y="1" stroke-width="0" fill="url(#gridpattern)"/>
  </g>
 </g>
 <g>
  <title>Layer 1</title>
  <defs>
   <clipPath id="svg_31">
    <path d="m13.7133,0.17061l6.75,0l0,7.683l-6.75,0l0,-7.683z" id="svg_33"/>
   </clipPath>
   <clipPath id="svg_29">
    <path d="m0.2943,8.19461l27.06,0l0,25.236l-27.06,0l0,-25.236z" id="svg_34"/>
   </clipPath>
   <clipPath id="svg_27">
    <path d="m0.2943,33.59961l141.212,0l0,-33.429l-141.212,0l0,33.429z" id="svg_35"/>
   </clipPath>
   <clipPath id="svg_25">
    <path d="m0.2943,33.59961l141.212,0l0,-33.429l-141.212,0l0,33.429z" id="svg_36"/>
   </clipPath>
   <clipPath id="svg_23">
    <path d="m0.2943,33.59961l141.212,0l0,-33.429l-141.212,0l0,33.429z" id="svg_37"/>
   </clipPath>
   <clipPath id="svg_21">
    <path d="m0.2943,33.59961l141.212,0l0,-33.429l-141.212,0l0,33.429z" id="svg_38"/>
   </clipPath>
   <clipPath id="svg_19">
    <path d="m0.2943,33.59961l141.212,0l0,-33.429l-141.212,0l0,33.429z" id="svg_39"/>
   </clipPath>
  </defs>
  <g id="svg_47" stroke="null">
   <g id="svg_30" transform="matrix(0.7035094735471,0,0,0.7035623373947186,0.0859151832049605,0.12026865477538884) " stroke="null">
    <path fill="#fa233b" d="m18.7103,5.50061c1.147,-1.435 1.926,-3.361 1.72,-5.33c-1.679,0.083 -3.728,1.108 -4.915,2.544c-1.065,1.23 -2.008,3.237 -1.762,5.123c1.885,0.164 3.768,-0.942 4.957,-2.337" fill-rule="evenodd" clip-path="url(#svg_31)" id="svg_40" stroke="null"/>
   </g>
   <g id="svg_28" transform="matrix(0.7035094735471,0,0,0.7035623373947186,0.0859151832049605,0.12026865477538884) " stroke="null">
    <path fill="#fa233b" d="m20.4093,8.20561c-2.738,-0.163 -5.066,1.554 -6.373,1.554c-1.308,0 -3.31,-1.471 -5.475,-1.432c-2.819,0.042 -5.434,1.635 -6.864,4.169c-2.942,5.071 -0.776,12.592 2.084,16.721c1.389,2.043 3.064,4.292 5.269,4.211c2.085,-0.081 2.902,-1.349 5.435,-1.349c2.532,0 3.268,1.349 5.474,1.309c2.288,-0.041 3.719,-2.045 5.108,-4.089c1.594,-2.329 2.246,-4.578 2.287,-4.701c-0.041,-0.041 -4.412,-1.718 -4.453,-6.746c-0.041,-4.21 3.432,-6.213 3.596,-6.337c-1.961,-2.9 -5.026,-3.227 -6.088,-3.31" fill-rule="evenodd" clip-path="url(#svg_29)" id="svg_41" stroke="null"/>
   </g>
   <g id="svg_26" transform="matrix(0.7035094735471,0,0,0.7035623373947186,0.0859151832049605,0.12026865477538884) " stroke="null">
    <path fill="#fa233b" d="m59.4193,33.17461l0,-22.569l-0.149,0l-9.245,22.569l-3.528,0l-9.266,-22.569l-0.149,0l0,22.569l-4.335,0l0,-30.666l5.504,0l9.925,24.44l0.17,0l9.903,-24.44l5.525,0l0,30.666l-4.355,0z" fill-rule="evenodd" clip-path="url(#svg_27)" id="svg_42" stroke="null"/>
   </g>
   <g id="svg_24" transform="matrix(0.7035094735471,0,0,0.7035623373947186,0.0859151832049605,0.12026865477538884) " stroke="null">
    <path fill="#fa233b" d="m87.7453,33.17461l-4.399,0l0,-3.783l-0.106,0c-1.233,2.677 -3.507,4.186 -6.928,4.186c-4.867,0 -7.842,-3.166 -7.842,-8.288l0,-14.472l4.59,0l0,13.58c0,3.4 1.615,5.228 4.782,5.228c3.315,0 5.312,-2.296 5.312,-5.781l0,-13.027l4.591,0l0,22.357z" fill-rule="evenodd" clip-path="url(#svg_25)" id="svg_43" stroke="null"/>
   </g>
   <g id="svg_22" transform="matrix(0.7035094735471,0,0,0.7035623373947186,0.0859151832049605,0.12026865477538884) " stroke="null">
    <path fill="#fa233b" d="m100.3253,10.41361c5.206,0 8.585,2.891 8.734,7.013l-4.314,0c-0.255,-2.167 -1.849,-3.527 -4.42,-3.527c-2.487,0 -4.144,1.211 -4.144,2.996c0,1.402 1.02,2.359 3.442,2.911l3.634,0.829c4.57,1.063 6.312,2.848 6.312,6.078c0,4.08 -3.804,6.886 -9.074,6.886c-5.589,0 -8.947,-2.742 -9.372,-6.992l4.548,0c0.425,2.337 2.019,3.485 4.824,3.485c2.762,0 4.463,-1.148 4.463,-2.975c0,-1.445 -0.829,-2.295 -3.273,-2.848l-3.634,-0.85c-4.25,-0.977 -6.355,-3.017 -6.355,-6.269c0,-3.995 3.486,-6.737 8.629,-6.737" fill-rule="evenodd" clip-path="url(#svg_23)" id="svg_44" stroke="null"/>
   </g>
   <g id="svg_20" transform="matrix(0.7035094735471,0,0,0.7035623373947186,0.0859151832049605,0.12026865477538884) " stroke="null">
    <path fill="#fa233b" d="m113.1163,33.17461l4.591,0l0,-22.357l-4.591,0l0,22.357zm-0.36,-28.264c0,-1.467 1.19,-2.636 2.656,-2.636c1.466,0 2.635,1.169 2.635,2.636c0,1.445 -1.169,2.635 -2.635,2.635c-1.466,0 -2.656,-1.19 -2.656,-2.635l0,0z" fill-rule="evenodd" clip-path="url(#svg_21)" id="svg_45" stroke="null"/>
   </g>
   <g id="svg_18" transform="matrix(0.7035094735471,0,0,0.7035623373947186,0.0859151832049605,0.12026865477538884) " stroke="null">
    <path fill="#fa233b" d="m137.0863,18.51061c-0.467,-2.38 -2.252,-4.272 -5.249,-4.272c-3.549,0 -5.887,2.954 -5.887,7.757c0,4.909 2.359,7.757 5.93,7.757c2.826,0 4.675,-1.551 5.206,-4.144l4.42,0c-0.489,4.761 -4.292,7.991 -9.669,7.991c-6.397,0 -10.562,-4.378 -10.562,-11.604c0,-7.098 4.165,-11.582 10.52,-11.582c5.759,0 9.265,3.698 9.669,8.097l-4.378,0z" fill-rule="evenodd" clip-path="url(#svg_19)" id="svg_46" stroke="null"/>
   </g>
  </g>
 </g>
</svg>
